<?xml version="1.0" standalone="no"?><!DOCTYPE svg PUBLIC "-//W3C//DTD SVG 1.1//EN" "http://www.w3.org/Graphics/SVG/1.1/DTD/svg11.dtd"><svg t="1582612321179" class="icon" viewBox="0 0 1024 1024" version="1.1" xmlns="http://www.w3.org/2000/svg" p-id="1562" xmlns:xlink="http://www.w3.org/1999/xlink" width="200" height="200"><defs><style type="text/css"></style></defs><path d="M66.091254 959.534779 66.091254 847.528799c0-79.122035 64.140833-143.262868 143.262868-143.262868L818.638819 704.265932c79.122035 0 143.262868 64.140833 143.262868 143.262868l0 112.00598L66.091254 959.534779z" p-id="1563" fill="#ffffff"></path><path d="M535.194258 63.587224l0 0.033769c-49.14428 0-186.582489-6.139837-278.57567 93.350085 36.686551-25.034163 68.338435-20.754696 62.300928-15.154141-56.486502 52.396347-91.840708 127.253242-91.840708 210.375381 0 158.459988 128.45665 286.916639 286.916639 286.916639s286.916639-128.45665 286.916639-286.916639C800.913109 200.870914 684.256202 63.587224 535.194258 63.587224zM320.779887 191.736882l255.346619 0 0 64.60746L320.779887 256.344343 320.779887 191.736882zM703.781908 383.788943 320.779887 383.788943l0-63.633273 383.002021 0L703.781908 383.788943z" p-id="1564" fill="#ffffff"></path></svg>