<?xml version="1.0" standalone="no"?><!DOCTYPE svg PUBLIC "-//W3C//DTD SVG 1.1//EN" "http://www.w3.org/Graphics/SVG/1.1/DTD/svg11.dtd"><svg t="1582613281701" class="icon" viewBox="0 0 1024 1024" version="1.1" xmlns="http://www.w3.org/2000/svg" p-id="2170" xmlns:xlink="http://www.w3.org/1999/xlink" width="200" height="200"><defs><style type="text/css"></style></defs><path d="M51.197291 358.402709V153.606322c0-56.554538 45.843656-102.407225 102.4-102.407225h204.803612c56.556344 0 102.4 45.852687 102.4 102.407225v204.796387c0 56.552731-45.843656 102.398194-102.4 102.398194H153.597291c-56.554538 0-102.4-45.845462-102.4-102.398194z m332.799548 0V153.606322c0-14.139086-11.45685-25.603161-25.595936-25.603161H153.597291c-14.139086 0-25.595936 11.465881-25.595936 25.603161v204.796387c0 14.139086 11.45685 25.595936 25.595936 25.595936h204.803612c14.139086 0 25.595936-11.45685 25.595936-25.595936zM563.199097 870.402709V665.606322c0-56.554538 45.843656-102.407225 102.396387-102.407225h204.807225c56.554538 0 102.398194 45.852687 102.398194 102.407225v204.796387c0 56.556344-45.843656 102.398194-102.398194 102.398194h-204.807225c-56.552731-0.001806-102.396388-45.843656-102.396387-102.398194z m332.799548 0V665.606322c0-14.139086-11.45685-25.604967-25.595936-25.604967h-204.807225c-14.13728 0-25.592324 11.465881-25.592323 25.604967v204.796387c0 14.139086 11.45685 25.595936 25.592323 25.595936h204.807225c14.139086 0 25.595936-11.45685 25.595936-25.595936zM358.400903 895.998645H153.597291c-14.139086 0-25.595936-11.45685-25.595936-25.595936V665.606322c0-14.139086 11.45685-25.604967 25.595936-25.604967h204.803612c14.140892 0 25.595936 11.465881 25.595936 25.604967v204.796387c0 14.139086-11.45685 25.595936-25.595936 25.595936z m-204.803612 76.800452h204.803612c56.556344 0 102.4-45.84185 102.4-102.398194V665.604516c0-56.554538-45.843656-102.407225-102.4-102.407225H153.597291c-56.554538 0-102.4 45.852687-102.4 102.407225v204.796387c0 56.556344 45.845462 102.398194 102.4 102.398194zM912.818161 111.19087c-79.977592-79.979398-209.656924-79.979398-289.636322 0-79.970367 79.979398-79.970367 209.649699 0 289.629097 79.981204 79.979398 209.65873 79.979398 289.636322 0 79.979398-79.981204 79.979398-209.649699 0-289.629097z" fill="#ffffff" p-id="2171"></path></svg>