<?xml version="1.0" standalone="no"?><!DOCTYPE svg PUBLIC "-//W3C//DTD SVG 1.1//EN" "http://www.w3.org/Graphics/SVG/1.1/DTD/svg11.dtd"><svg t="1582790218225" class="icon" viewBox="0 0 1024 1024" version="1.1" xmlns="http://www.w3.org/2000/svg" p-id="20138" xmlns:xlink="http://www.w3.org/1999/xlink" width="200" height="200"><defs><style type="text/css"></style></defs><path d="M97 384h830v64H97z" p-id="20139" fill="#1296db"></path><path d="M800 288m-32 0a32 32 0 1 0 64 0 32 32 0 1 0-64 0Z" p-id="20140" fill="#1296db"></path><path d="M800 544.5m-32 0a32 32 0 1 0 64 0 32 32 0 1 0-64 0Z" p-id="20141" fill="#1296db"></path><path d="M512 864m-64 0a64 64 0 1 0 128 0 64 64 0 1 0-128 0Z" p-id="20142" fill="#1296db"></path><path d="M492 671h40v193h-40z" p-id="20143" fill="#1296db"></path><path d="M128 844h768v40H128zM896 192v448H128V192h768m64-64H64v576h896V128z" p-id="20144" fill="#1296db"></path></svg>