<?xml version="1.0" standalone="no"?><!DOCTYPE svg PUBLIC "-//W3C//DTD SVG 1.1//EN" "http://www.w3.org/Graphics/SVG/1.1/DTD/svg11.dtd"><svg t="1583216038290" class="icon" viewBox="0 0 1024 1024" version="1.1" xmlns="http://www.w3.org/2000/svg" p-id="2306" xmlns:xlink="http://www.w3.org/1999/xlink" width="200" height="200"><defs><style type="text/css"></style></defs><path d="M512 303.104c-115.712 0-208.896 94.208-208.896 208.896S397.312 720.896 512 720.896 720.896 626.688 720.896 512C716.8 397.312 626.688 303.104 512 303.104zM512 677.888c-94.208 0-166.912-72.704-166.912-165.888S417.792 346.112 512 346.112 677.888 417.792 677.888 512 602.112 677.888 512 677.888zM939.008 421.888 896 409.6c-13.312-33.792-25.6-68.608-43.008-98.304l21.504-38.912c8.192-13.312 12.288-29.696 0-43.008l-84.992-84.992c-4.096-4.096-12.288-8.192-17.408-8.192-8.192 0-17.408 4.096-25.6 8.192l-38.912 25.6c-29.696-17.408-59.392-29.696-94.208-38.912l-13.312-43.008c-4.096-17.408-13.312-29.696-29.696-29.696L448.512 58.368c-17.408 0-25.6 17.408-29.696 29.696L409.6 128c-33.792 8.192-68.608 21.504-98.304 38.912l-38.912-21.504c-8.192-4.096-17.408-8.192-25.6-8.192-8.192 0-13.312 0-17.408 8.192l-84.992 84.992c-13.312 13.312-8.192 29.696 0 43.008l21.504 38.912c-17.408 29.696-29.696 64.512-38.912 98.304l-43.008 13.312c-17.408 4.096-29.696 13.312-29.696 29.696l0 123.904c0 17.408 17.408 25.6 29.696 29.696l43.008 13.312c8.192 33.792 21.504 64.512 38.912 94.208l-21.504 38.912c-8.192 12.288-13.312 29.696 0 43.008l84.992 84.992c4.096 4.096 13.312 8.192 17.408 8.192 8.192 0 17.408-4.096 25.6-8.192l38.912-25.6c29.696 21.504 64.512 33.792 98.304 43.008l13.312 43.008c4.096 17.408 13.312 29.696 29.696 29.696l123.904 0c17.408 0 25.6-17.408 29.696-29.696l13.312-43.008c33.792-8.192 64.512-21.504 94.208-38.912l38.912 25.6c8.192 4.096 17.408 8.192 25.6 8.192s12.288 0 17.408-8.192l84.992-84.992c13.312-12.288 8.192-29.696 0-43.008l-25.6-43.008c17.408-29.696 29.696-59.392 38.912-94.208l43.008-13.312c17.408-4.096 29.696-13.312 29.696-29.696L966.656 452.608C968.704 435.2 951.296 421.888 939.008 421.888zM925.696 563.2 925.696 563.2l-43.008 13.312c-13.312 4.096-25.6 17.408-29.696 29.696-8.192 29.696-21.504 59.392-33.792 84.992-8.192 13.312-8.192 29.696 0 43.008l21.504 38.912L768 844.8l0 0-38.912-21.504C720.896 819.2 716.8 819.2 708.608 819.2s-12.288 0-21.504 4.096c-25.6 17.408-55.296 25.6-84.992 33.792-13.312 4.096-25.6 17.408-29.696 29.696l-13.312 43.008 0 0-102.4 0-13.312-43.008c-4.096-12.288-17.408-25.6-29.696-29.696-29.696-8.192-59.392-21.504-84.992-33.792C320.512 819.2 315.392 819.2 307.2 819.2s-13.312 0-21.504 4.096l-38.912 21.504 0 0L179.2 768l21.504-38.912c8.192-13.312 8.192-29.696 0-43.008-17.408-25.6-25.6-55.296-33.792-84.992-4.096-13.312-17.408-25.6-29.696-29.696l-43.008-13.312 0 0 0-102.4 43.008-13.312c13.312-4.096 25.6-17.408 29.696-29.696 8.192-29.696 21.504-59.392 33.792-84.992 8.192-13.312 8.192-29.696 0-43.008L179.2 256l0 0 72.704-72.704 38.912 21.504c8.192 4.096 13.312 4.096 21.504 4.096 8.192 0 13.312 0 21.504-4.096 25.6-17.408 55.296-25.6 84.992-33.792 13.312-4.096 25.6-17.408 29.696-29.696L460.8 98.304l102.4 0 0 0 13.312 43.008c4.096 13.312 17.408 25.6 29.696 29.696 29.696 8.192 59.392 21.504 84.992 33.792 8.192 4.096 13.312 4.096 21.504 4.096s12.288 0 21.504-4.096l33.792-25.6 72.704 76.8 0 0L819.2 294.912c-8.192 13.312-8.192 29.696 0 43.008 17.408 25.6 25.6 55.296 33.792 84.992 4.096 13.312 17.408 25.6 29.696 29.696l43.008 13.312L925.696 563.2z" p-id="2307" fill="#ffffff"></path></svg>