<?xml version="1.0" standalone="no"?><!DOCTYPE svg PUBLIC "-//W3C//DTD SVG 1.1//EN" "http://www.w3.org/Graphics/SVG/1.1/DTD/svg11.dtd"><svg t="1582613400805" class="icon" viewBox="0 0 1024 1024" version="1.1" xmlns="http://www.w3.org/2000/svg" p-id="4157" xmlns:xlink="http://www.w3.org/1999/xlink" width="200" height="200"><defs><style type="text/css"></style></defs><path d="M670.464 618.88a32.256 32.256 0 0 1-22.72-9.408L511.488 472 374.08 608.256a32 32 0 0 1-45.056-45.504l160.128-158.72a31.936 31.936 0 0 1 45.248 0.192l158.784 160.128a32.128 32.128 0 0 1-0.192 45.312 32.128 32.128 0 0 1-22.528 9.216z" fill="#ffffff" p-id="4158"></path><path d="M510.976 968.256a32 32 0 0 1-32-32V481.408a32 32 0 0 1 64 0v454.848a32 32 0 0 1-32 32z" fill="#ffffff" p-id="4159"></path><path d="M807.872 759.488h-115.904a32 32 0 0 1 0-64h115.904A152.192 152.192 0 0 0 960 543.488a152.32 152.32 0 0 0-152.128-152.192H721.28l4.8-44.416c0.576-4.224 1.28-8.448 1.28-12.864a214.528 214.528 0 0 0-214.208-214.272A214.528 214.528 0 0 0 298.88 334.016c0 4.416 0.704 8.64 1.28 12.864l4.8 44.416H216.064A152.32 152.32 0 0 0 64 543.488a152.192 152.192 0 0 0 152.064 152h115.904a32 32 0 0 1 0 64H216.064A216.256 216.256 0 0 1 0 543.488a216.32 216.32 0 0 1 216.064-216.192h18.88A278.592 278.592 0 0 1 513.088 55.744a278.528 278.528 0 0 1 278.144 271.552h16.576A216.384 216.384 0 0 1 1024 543.488a216.32 216.32 0 0 1-216.128 216z" fill="#ffffff" p-id="4160"></path></svg>