<?xml version="1.0" standalone="no"?><!DOCTYPE svg PUBLIC "-//W3C//DTD SVG 1.1//EN" "http://www.w3.org/Graphics/SVG/1.1/DTD/svg11.dtd"><svg t="1582790182917" class="icon" viewBox="0 0 1137 1024" version="1.1" xmlns="http://www.w3.org/2000/svg" p-id="17630" width="222.0703125" height="200" xmlns:xlink="http://www.w3.org/1999/xlink"><defs><style type="text/css"></style></defs><path d="M800.199111 379.249778c0 14.165333 11.434667 25.742222 25.543111 25.742222h285.866667a25.685333 25.685333 0 0 0 25.543111-25.742222 25.685333 25.685333 0 0 0-25.514667-25.742222H825.742222a25.685333 25.685333 0 0 0-25.543111 25.742222z m306.773333 80.668444H769.223111c-16.725333 0-30.208 11.576889-30.208 25.742222 0 14.165333 13.482667 25.770667 30.208 25.770667h337.749333c16.64 0 30.179556-11.605333 30.179556-25.770667 0-14.165333-13.539556-25.742222-30.179556-25.742222z m4.664889 106.382222H825.742222a25.685333 25.685333 0 0 0-25.543111 25.770667c0 14.165333 11.434667 25.770667 25.543111 25.770667h285.866667a25.685333 25.685333 0 0 0 25.543111-25.770667 25.685333 25.685333 0 0 0-25.514667-25.742222zM548.295111 1023.488h-203.150222c-192.682667 0-344.917333 0-344.917333-100.323556v-20.081777c0-188.074667 154.737778-341.020444 344.917333-341.020445h203.150222c190.151111 0 344.945778 152.945778 344.945778 341.048889v20.053333c-0.056889 100.323556-159.886222 100.323556-344.945778 100.323556z m-191.288889-373.418667c-138.723556 0-251.619556 105.045333-251.619555 234.211556v16.725333c0 33.507556 145.408 33.507556 251.619555 33.507556h179.399111c87.921778 0 251.648 0 251.648-33.507556v-16.725333c0-129.137778-112.924444-234.211556-251.648-234.211556H356.977778z m79.530667-108.174222c-150.954667 0-273.720889-121.571556-273.720889-270.961778S285.582222 0.028444 436.536889 0.028444c151.04 0 273.777778 121.514667 273.777778 270.876445 0 149.390222-122.794667 270.961778-273.777778 270.961778zM237.454222 270.108444c0 109.795556 89.344 199.111111 199.111111 199.111112 109.795556 0 199.111111-89.315556 199.111111-199.111112 0-109.824-89.315556-199.111111-199.111111-199.111111s-199.111111 89.315556-199.111111 199.111111z" fill="#1296db" p-id="17631"></path></svg>